<svg width="18" height="23" viewBox="0 0 18 23" fill="none" xmlns="http://www.w3.org/2000/svg">
<path d="M9.00008 22.7C7.48441 21.3596 6.07952 19.89 4.80009 18.3068C2.88009 15.9291 0.600099 12.3881 0.600099 9.01383C0.599266 7.29056 1.09151 5.60577 2.01453 4.17267C2.93755 2.73958 4.24985 1.6226 5.78537 0.963093C7.32088 0.303591 9.01057 0.131211 10.6406 0.467769C12.2706 0.804328 13.7678 1.6347 14.9425 2.85379C15.7246 3.6611 16.3445 4.62122 16.7663 5.67859C17.1882 6.73596 17.4036 7.86957 17.4001 9.01383C17.4001 12.3881 15.1201 15.9291 13.2001 18.3068C11.9206 19.89 10.5157 21.3596 9.00008 22.7ZM9.00008 5.28122C8.0453 5.28122 7.12963 5.67448 6.4545 6.37448C5.77937 7.07448 5.40009 8.02388 5.40009 9.01383C5.40009 10.0038 5.77937 10.9532 6.4545 11.6532C7.12963 12.3532 8.0453 12.7464 9.00008 12.7464C9.95485 12.7464 10.8705 12.3532 11.5457 11.6532C12.2208 10.9532 12.6001 10.0038 12.6001 9.01383C12.6001 8.02388 12.2208 7.07448 11.5457 6.37448C10.8705 5.67448 9.95485 5.28122 9.00008 5.28122Z" fill="black"/>
</svg>
